<?xml version="1.0" encoding="UTF-8"?>
<svg version="1.1" xmlns="http://www.w3.org/2000/svg" width="519" height="518">
<path d="M0 0 C34.98 0 69.96 0 106 0 C106 1.32 106 2.64 106 4 C107.28583984 3.69255859 107.28583984 3.69255859 108.59765625 3.37890625 C109.74105469 3.10949219 110.88445312 2.84007812 112.0625 2.5625 C113.18785156 2.29566406 114.31320313 2.02882813 115.47265625 1.75390625 C124.10627202 -0.09137375 132.5939212 -0.24261821 141.375 -0.25 C142.09308838 -0.25067474 142.81117676 -0.25134949 143.55102539 -0.25204468 C181.69227721 -0.19505225 215.7674844 15.25933661 243.328125 41.29296875 C247.58344926 45.60428412 251.36535578 50.15822942 255 55 C255.72703125 55.96164063 256.4540625 56.92328125 257.203125 57.9140625 C270.81933892 76.71967263 279.16779736 97.172203 283 120 C283.17200928 120.90806396 283.34401855 121.81612793 283.52124023 122.75170898 C284.44970007 129.05112672 284.24486037 135.45478217 284.25 141.8125 C284.25067474 142.55676239 284.25134949 143.30102478 284.25204468 144.06784058 C284.1965338 182.52131368 268.79853255 217.40340288 242.125 244.97265625 C215.73822393 271.16688922 179.51139708 285.19998776 142.625 285.25 C141.91123199 285.25200409 141.19746399 285.25400818 140.46206665 285.256073 C128.6891368 285.26418644 117.27223248 284.75741083 106 281 C106 355.91 106 430.82 106 508 C71.02 508 36.04 508 0 508 C0 340.36 0 172.72 0 0 Z M106 92 C105.85132077 95.10305436 105.76817359 98.18462022 105.7277832 101.28979492 C105.71157425 102.26541382 105.6953653 103.24103271 105.67866516 104.24621582 C105.53836905 113.25604462 105.46035331 122.26686884 105.39974689 131.2775526 C105.35874084 137.33598086 105.29831038 143.39279702 105.19067383 149.45043945 C105.08706834 155.30024894 105.03236708 161.14861916 105.01228905 166.99929237 C104.99633075 169.23018655 104.9630454 171.46102644 104.91213417 173.69139671 C104.06347843 185.35824289 104.06347843 185.35824289 108.17457581 195.67951965 C110.79656911 197.2938169 113.03420908 198.21797498 116 199 C117.69576172 199.70576172 117.69576172 199.70576172 119.42578125 200.42578125 C120.37839844 200.71839844 121.33101562 201.01101562 122.3125 201.3125 C123.27800781 201.61800781 124.24351562 201.92351562 125.23828125 202.23828125 C140.74927447 206.51641941 157.3194484 204.51889686 171.6875 197.4375 C186.48107142 188.68482063 197.55044084 174.6310188 202.25 158.0625 C205.94773896 140.49823995 202.95357497 123.62488162 193.75 108.25 C185.46897542 95.97123941 174.04511686 87.61217534 160 83 C159.34257812 82.77441406 158.68515625 82.54882812 158.0078125 82.31640625 C142.36989218 77.90493067 117.91191323 80.08808677 106 92 Z " fill="#EE4132" transform="translate(118,6)"/>
<path d="M0 0 C34.98 0 69.96 0 106 0 C106 1.32 106 2.64 106 4 C107.28583984 3.69255859 107.28583984 3.69255859 108.59765625 3.37890625 C109.74105469 3.10949219 110.88445312 2.84007812 112.0625 2.5625 C113.18785156 2.29566406 114.31320313 2.02882813 115.47265625 1.75390625 C124.10627202 -0.09137375 132.5939212 -0.24261821 141.375 -0.25 C142.09308838 -0.25067474 142.81117676 -0.25134949 143.55102539 -0.25204468 C181.69227721 -0.19505225 215.7674844 15.25933661 243.328125 41.29296875 C247.58344926 45.60428412 251.36535578 50.15822942 255 55 C255.72703125 55.96164063 256.4540625 56.92328125 257.203125 57.9140625 C270.81933892 76.71967263 279.16779736 97.172203 283 120 C283.17200928 120.90806396 283.34401855 121.81612793 283.52124023 122.75170898 C284.44970007 129.05112672 284.24486037 135.45478217 284.25 141.8125 C284.25067474 142.55676239 284.25134949 143.30102478 284.25204468 144.06784058 C284.1965338 182.52131368 268.79853255 217.40340288 242.125 244.97265625 C215.73822393 271.16688922 179.51139708 285.19998776 142.625 285.25 C141.91123199 285.25200409 141.19746399 285.25400818 140.46206665 285.256073 C128.6891368 285.26418644 117.27223248 284.75741083 106 281 C106 251.96 106 222.92 106 193 C113.425 196.465 113.425 196.465 121 200 C137.85457702 205.61819234 155.71776563 204.30829766 171.6875 196.4375 C186.44638884 187.68334537 196.27615435 174.46022187 201 158 C204.7648156 140.30536667 202.09105587 123.7956852 192.6875 108.1875 C184.66775428 96.30447893 173.59804788 88.46536556 160 84 C159.34257812 83.77441406 158.68515625 83.54882812 158.0078125 83.31640625 C141.46136847 78.64863507 124.10937028 82.843153 108.9765625 89.8515625 C105.91435865 92.74852616 105.91435865 92.74852616 106 102 C71.02 102 36.04 102 0 102 C0 68.34 0 34.68 0 0 Z " fill="#30A552" transform="translate(118,6)"/>
<path d="M0 0 C34.98 0 69.96 0 106 0 C106 46.2 106 92.4 106 140 C71.02 140 36.04 140 0 140 C0 93.8 0 47.6 0 0 Z " fill="#FFBA00" transform="translate(118,108)"/>
<path d="M0 0 C34.98 0 69.96 0 106 0 C106 33.66 106 67.32 106 102 C71.02 102 36.04 102 0 102 C0 68.34 0 34.68 0 0 Z " fill="#4586FA" transform="translate(118,6)"/>
<path d="M0 0 C34.98 0 69.96 0 106 0 C106 13.2 106 26.4 106 40 C71.02 40 36.04 40 0 40 C0 26.8 0 13.6 0 0 Z " fill="#1971F0" transform="translate(118,6)"/>
</svg>
