<?xml version="1.0" encoding="UTF-8"?>
<!DOCTYPE svg PUBLIC "-//W3C//DTD SVG 1.1//EN" "http://www.w3.org/Graphics/SVG/1.1/DTD/svg11.dtd">
<!-- Creator: CorelDRAW (Evaluation Version) -->
<svg xmlns="http://www.w3.org/2000/svg" xml:space="preserve" width="1.66666in" height="1.66666in" version="1.1" style="shape-rendering:geometricPrecision; text-rendering:geometricPrecision; image-rendering:optimizeQuality; fill-rule:evenodd; clip-rule:evenodd"
viewBox="0 0 1666.66 1666.66"
 xmlns:xlink="http://www.w3.org/1999/xlink"
 xmlns:xodm="http://www.corel.com/coreldraw/odm/2003">
 <defs>
  <style type="text/css">
   <![CDATA[
    .fil1 {fill:#1971F0}
    .fil3 {fill:#31A653}
    .fil2 {fill:#4586FA}
    .fil0 {fill:#EE4132}
    .fil4 {fill:#FFBA00}
   ]]>
  </style>
 </defs>
 <g id="Layer_x0020_1">
  <metadata id="CorelCorpID_0Corel-Layer"/>
  <rect class="fil0" x="713.48" y="1289.01" width="208.52" height="204.32" rx="15.5" ry="22.39"/>
  <path class="fil1" d="M830.57 173.33l-0 0c-246.8,0 -336.85,154.35 -339.71,348.21 -0.51,34.61 -7.37,88.46 6.41,106.95 82.22,0.53 131.2,0.85 213.43,1.38 22.79,3.46 9.46,-139.87 16.13,-149.87 29.75,-49.59 53.99,-60.17 98.88,-70.99 13.84,-3.34 16.24,-1.39 21.12,-9.01 13.17,-20.54 13.58,-55.43 13.33,-90 -0.35,-49.06 1.96,-110.44 -0.08,-120.06 -1.57,-7.42 -8.88,-16.61 -29.5,-16.61z"/>
  <path class="fil2" d="M1173.48 493.33c-14.57,-165.37 -152.03,-320 -342.91,-320l-0 0c-3.61,0 -3.84,19.93 -3.75,23.33 3.6,133.73 3.61,58.14 3.35,209.37 -0.01,5.29 10.47,2.98 16.12,4.52 80.32,21.93 79.27,66.14 80.53,69.44 -2.12,17.21 2.65,71.76 0.65,88.39 -5.07,42.06 3.39,-29.41 -2.74,22.97 -3.83,32.76 -8.49,34.09 5.43,38.64 35.34,11.54 112.99,39.04 196.67,36.67 32.99,-0.93 41.29,-52.22 46.67,-76.67 9.85,-44.74 0.44,-91.71 0,-96.67z"/>
  <path class="fil3" d="M985.04 912.78c7.05,0.35 18.57,-17.27 22.79,-22.39 116.06,-140.59 55.66,-50.4 132.33,-197.07 25.81,-49.38 30.09,-68.47 20.43,-70.23 -20.26,-3.7 -78.07,-2.72 -120.43,-3.11 -38.74,-0.35 -122.37,-6.43 -122.89,4.06 -0.06,1.27 -5.54,28.06 -7,29.57 -15.58,37.13 -2.71,12.54 -33.44,66.37l-73.33 80c-23.7,25.86 -68.69,84.9 -72.83,101.15 -3.48,13.67 18.61,8.59 29.5,8.85 126.28,2.95 179.28,0.54 224.88,2.79z"/>
  <path class="fil4" d="M973.48 923.33c1.39,-2.56 20.26,-14.88 11.8,-14.77 -203.34,2.58 -27.59,1.63 -242.26,-0.61 -6.44,-0.07 -15.7,2.21 -16.21,8.72 -11.23,143.04 -13.27,43.35 -10.23,286.06 0.07,6.24 7.82,7.27 16.89,7.27 57.86,0 145.32,-0.58 180,-3.33 9.18,-0.73 10,-36.66 10,-36.67 11.65,-177.32 26.51,-203.33 50,-246.67z"/>
 </g>
</svg>
